<svg xmlns="http://www.w3.org/2000/svg" xmlns:xlink="http://www.w3.org/1999/xlink" viewBox="0 0 75 93.75" version="1.1" x="0px" y="0px"><g><path style="" d="M 51.789062 2.539062 L 23.554688 32.980469 L 20.273438 36.261719 L 2.203125 54.335938 C 0.976562 55.558594 0.976562 57.539062 2.203125 58.765625 L 2.480469 59.042969 C 3.703125 60.265625 5.6875 60.265625 6.90625 59.042969 L 23.621094 42.328125 L 37.675781 56.382812 C 38.425781 57.128906 39.640625 57.128906 40.390625 56.382812 L 73.15625 23.617188 C 73.90625 22.867188 73.90625 21.648438 73.15625 20.898438 L 54.503906 2.539062 C 53.757812 1.789062 52.539062 1.789062 51.789062 2.539062 Z M 71.796875 22.257812 L 39.03125 55.023438 L 36.402344 52.394531 C 37.53125 51.285156 39.964844 48.894531 43.015625 45.84375 C 51.6875 37.171875 65.320312 23.21875 68.058594 18.523438 Z M 66.644531 17.105469 C 65.671875 20.234375 46.957031 39.367188 35.046875 51.039062 L 24.605469 40.597656 L 23.882812 35.367188 L 53.148438 3.898438 Z M 66.644531 17.105469 " stroke="none" fill-rule="nonzero" fill="rgb(0%,0%,0%)" fill-opacity="1"/><path style="" d="M 55.65625 10.59375 C 55.65625 11.984375 54.53125 13.113281 53.136719 13.113281 C 51.746094 13.113281 50.617188 11.984375 50.617188 10.59375 C 50.617188 9.203125 51.746094 8.074219 53.136719 8.074219 C 54.53125 8.074219 55.65625 9.203125 55.65625 10.59375 Z M 55.65625 10.59375 " stroke="none" fill-rule="nonzero" fill="rgb(0%,0%,0%)" fill-opacity="1"/></g><text x="0" y="90" fill="#000000" font-size="5px" font-weight="bold" font-family="'Helvetica Neue', Helvetica, Arial-Unicode, Arial, Sans-serif">Created by Lloyd Humphreys</text><text x="0" y="95" fill="#000000" font-size="5px" font-weight="bold" font-family="'Helvetica Neue', Helvetica, Arial-Unicode, Arial, Sans-serif">from the Noun Project</text></svg>